<mxfile host="app.diagrams.net" modified="2024-01-23T10:43:24.079Z" agent="Mozilla/5.0 (Windows NT 10.0; Win64; x64) AppleWebKit/537.36 (KHTML, like Gecko) Chrome/120.0.0.0 Safari/537.36" etag="l9JUYNQgGkvX83jSQsXT" version="22.1.21" type="device">
  <diagram name="Page-1" id="SIwKm4nUPkbU5gBLlkQm">
    <mxGraphModel dx="1195" dy="701" grid="1" gridSize="10" guides="1" tooltips="1" connect="1" arrows="1" fold="1" page="1" pageScale="1" pageWidth="827" pageHeight="1169" math="0" shadow="0">
      <root>
        <mxCell id="0" />
        <mxCell id="1" parent="0" />
        <mxCell id="ub6G-4bFwMb0tMZ0WZEx-16" value="Module bibliothèque en ligne" style="shape=rect;html=1;verticalAlign=top;fontStyle=1;whiteSpace=wrap;align=center;" vertex="1" parent="1">
          <mxGeometry x="170" y="120" width="340" height="440" as="geometry" />
        </mxCell>
        <mxCell id="ub6G-4bFwMb0tMZ0WZEx-17" value="Adhérent" style="shape=umlActor;html=1;verticalLabelPosition=bottom;verticalAlign=top;align=center;" vertex="1" parent="1">
          <mxGeometry x="90" y="250" width="30" height="60" as="geometry" />
        </mxCell>
        <mxCell id="ub6G-4bFwMb0tMZ0WZEx-18" value="" style="shadow=0;dashed=0;html=1;strokeColor=none;fillColor=#4495D1;labelPosition=center;verticalLabelPosition=bottom;verticalAlign=top;align=center;outlineConnect=0;shape=mxgraph.veeam.library;" vertex="1" parent="1">
          <mxGeometry x="582.83" y="230" width="104.35" height="80" as="geometry" />
        </mxCell>
        <mxCell id="ub6G-4bFwMb0tMZ0WZEx-19" value="Biblothèque" style="text;html=1;align=center;verticalAlign=middle;resizable=0;points=[];autosize=1;strokeColor=none;fillColor=none;" vertex="1" parent="1">
          <mxGeometry x="597.18" y="305" width="90" height="30" as="geometry" />
        </mxCell>
        <mxCell id="ub6G-4bFwMb0tMZ0WZEx-20" value="Gérer son compte" style="ellipse;whiteSpace=wrap;html=1;" vertex="1" parent="1">
          <mxGeometry x="274" y="155" width="140" height="70" as="geometry" />
        </mxCell>
        <mxCell id="ub6G-4bFwMb0tMZ0WZEx-21" value="Chercher dans le catalogue" style="ellipse;whiteSpace=wrap;html=1;" vertex="1" parent="1">
          <mxGeometry x="274" y="230" width="140" height="70" as="geometry" />
        </mxCell>
        <mxCell id="ub6G-4bFwMb0tMZ0WZEx-22" value="Réserver un livre" style="ellipse;whiteSpace=wrap;html=1;" vertex="1" parent="1">
          <mxGeometry x="274" y="310" width="140" height="70" as="geometry" />
        </mxCell>
        <mxCell id="ub6G-4bFwMb0tMZ0WZEx-23" value="Renouveler un réservation" style="ellipse;whiteSpace=wrap;html=1;" vertex="1" parent="1">
          <mxGeometry x="274" y="390" width="140" height="70" as="geometry" />
        </mxCell>
        <mxCell id="ub6G-4bFwMb0tMZ0WZEx-24" value="Saisir un avis" style="ellipse;whiteSpace=wrap;html=1;" vertex="1" parent="1">
          <mxGeometry x="274" y="480" width="140" height="70" as="geometry" />
        </mxCell>
        <mxCell id="ub6G-4bFwMb0tMZ0WZEx-25" value="" style="edgeStyle=none;html=1;endArrow=none;verticalAlign=bottom;rounded=0;exitX=0.472;exitY=0.331;exitDx=0;exitDy=0;exitPerimeter=0;" edge="1" parent="1" source="ub6G-4bFwMb0tMZ0WZEx-17" target="ub6G-4bFwMb0tMZ0WZEx-20">
          <mxGeometry width="160" relative="1" as="geometry">
            <mxPoint x="390" y="360" as="sourcePoint" />
            <mxPoint x="550" y="360" as="targetPoint" />
          </mxGeometry>
        </mxCell>
        <mxCell id="ub6G-4bFwMb0tMZ0WZEx-26" value="" style="edgeStyle=none;html=1;endArrow=none;verticalAlign=bottom;rounded=0;exitX=1;exitY=0.3333333333333333;exitDx=0;exitDy=0;exitPerimeter=0;" edge="1" parent="1" source="ub6G-4bFwMb0tMZ0WZEx-17" target="ub6G-4bFwMb0tMZ0WZEx-21">
          <mxGeometry width="160" relative="1" as="geometry">
            <mxPoint x="114" y="280" as="sourcePoint" />
            <mxPoint x="296" y="219" as="targetPoint" />
          </mxGeometry>
        </mxCell>
        <mxCell id="ub6G-4bFwMb0tMZ0WZEx-27" value="" style="edgeStyle=none;html=1;endArrow=none;verticalAlign=bottom;rounded=0;" edge="1" parent="1" source="ub6G-4bFwMb0tMZ0WZEx-17" target="ub6G-4bFwMb0tMZ0WZEx-22">
          <mxGeometry width="160" relative="1" as="geometry">
            <mxPoint x="130" y="280" as="sourcePoint" />
            <mxPoint x="284" y="277" as="targetPoint" />
          </mxGeometry>
        </mxCell>
        <mxCell id="ub6G-4bFwMb0tMZ0WZEx-28" value="" style="edgeStyle=none;html=1;endArrow=none;verticalAlign=bottom;rounded=0;" edge="1" parent="1" source="ub6G-4bFwMb0tMZ0WZEx-17" target="ub6G-4bFwMb0tMZ0WZEx-23">
          <mxGeometry width="160" relative="1" as="geometry">
            <mxPoint x="130" y="294" as="sourcePoint" />
            <mxPoint x="293" y="338" as="targetPoint" />
          </mxGeometry>
        </mxCell>
        <mxCell id="ub6G-4bFwMb0tMZ0WZEx-30" value="" style="edgeStyle=none;html=1;endArrow=none;verticalAlign=bottom;rounded=0;" edge="1" parent="1" source="ub6G-4bFwMb0tMZ0WZEx-17" target="ub6G-4bFwMb0tMZ0WZEx-24">
          <mxGeometry width="160" relative="1" as="geometry">
            <mxPoint x="90" y="335" as="sourcePoint" />
            <mxPoint x="266" y="444" as="targetPoint" />
          </mxGeometry>
        </mxCell>
        <mxCell id="ub6G-4bFwMb0tMZ0WZEx-31" value="" style="edgeStyle=none;html=1;endArrow=none;verticalAlign=bottom;rounded=0;" edge="1" parent="1" source="ub6G-4bFwMb0tMZ0WZEx-21" target="ub6G-4bFwMb0tMZ0WZEx-18">
          <mxGeometry width="160" relative="1" as="geometry">
            <mxPoint x="390" y="360" as="sourcePoint" />
            <mxPoint x="550" y="360" as="targetPoint" />
          </mxGeometry>
        </mxCell>
        <mxCell id="ub6G-4bFwMb0tMZ0WZEx-32" value="" style="edgeStyle=none;html=1;endArrow=none;verticalAlign=bottom;rounded=0;" edge="1" parent="1" source="ub6G-4bFwMb0tMZ0WZEx-18" target="ub6G-4bFwMb0tMZ0WZEx-22">
          <mxGeometry width="160" relative="1" as="geometry">
            <mxPoint x="424" y="276" as="sourcePoint" />
            <mxPoint x="593" y="279" as="targetPoint" />
          </mxGeometry>
        </mxCell>
        <mxCell id="ub6G-4bFwMb0tMZ0WZEx-33" value="" style="edgeStyle=none;html=1;endArrow=none;verticalAlign=bottom;rounded=0;" edge="1" parent="1" source="ub6G-4bFwMb0tMZ0WZEx-18" target="ub6G-4bFwMb0tMZ0WZEx-23">
          <mxGeometry width="160" relative="1" as="geometry">
            <mxPoint x="593" y="293" as="sourcePoint" />
            <mxPoint x="416" y="339" as="targetPoint" />
          </mxGeometry>
        </mxCell>
        <mxCell id="ub6G-4bFwMb0tMZ0WZEx-34" value="" style="edgeStyle=none;html=1;endArrow=none;verticalAlign=bottom;rounded=0;" edge="1" parent="1" source="ub6G-4bFwMb0tMZ0WZEx-18" target="ub6G-4bFwMb0tMZ0WZEx-24">
          <mxGeometry width="160" relative="1" as="geometry">
            <mxPoint x="593" y="308" as="sourcePoint" />
            <mxPoint x="402" y="409" as="targetPoint" />
          </mxGeometry>
        </mxCell>
        <mxCell id="ub6G-4bFwMb0tMZ0WZEx-36" value="" style="edgeStyle=none;html=1;endArrow=none;verticalAlign=bottom;rounded=0;" edge="1" parent="1" source="ub6G-4bFwMb0tMZ0WZEx-20" target="ub6G-4bFwMb0tMZ0WZEx-18">
          <mxGeometry width="160" relative="1" as="geometry">
            <mxPoint x="390" y="360" as="sourcePoint" />
            <mxPoint x="550" y="360" as="targetPoint" />
          </mxGeometry>
        </mxCell>
        <mxCell id="ub6G-4bFwMb0tMZ0WZEx-37" value="&amp;lt;&amp;lt;extend&amp;gt;&amp;gt;" style="edgeStyle=none;html=1;startArrow=open;endArrow=none;startSize=12;verticalAlign=bottom;dashed=1;labelBackgroundColor=none;rounded=0;" edge="1" parent="1" source="ub6G-4bFwMb0tMZ0WZEx-22" target="ub6G-4bFwMb0tMZ0WZEx-24">
          <mxGeometry width="160" relative="1" as="geometry">
            <mxPoint x="390" y="360" as="sourcePoint" />
            <mxPoint x="550" y="360" as="targetPoint" />
            <Array as="points">
              <mxPoint x="210" y="440" />
            </Array>
          </mxGeometry>
        </mxCell>
      </root>
    </mxGraphModel>
  </diagram>
</mxfile>
